<svg width="158" height="40" viewBox="0 0 158 40" fill="none" xmlns="http://www.w3.org/2000/svg">
<g clip-path="url(#clip0_20_14)">
<path d="M34.1874 17.1468V22.4431C34.1874 24.7897 34.1858 26.4498 34.078 27.7467C33.9718 29.0237 33.7706 29.8018 33.4525 30.4119C32.8336 31.6005 31.8622 32.57 30.6703 33.1874C30.0587 33.5047 29.2787 33.7055 27.9987 33.8114C26.6986 33.9189 25.0345 33.9206 22.6824 33.9206H17.7839C15.4317 33.9206 13.7677 33.9189 12.4678 33.8114C11.1874 33.7055 10.4077 33.5047 9.796 33.1874C8.60432 32.57 7.63267 31.6005 7.01363 30.4119C6.69586 29.8018 6.49465 29.0237 6.38829 27.7467C6.28037 26.4498 6.27901 24.7897 6.27901 22.4431V17.5565C6.27901 15.21 6.28037 13.55 6.38829 12.2532C6.49465 10.976 6.69586 10.1981 7.01363 9.58787C7.63267 8.39907 8.60432 7.42976 9.796 6.81221C10.4077 6.4952 11.1874 6.29448 12.4678 6.18841C13.7677 6.08071 15.4316 6.0794 17.7839 6.0794H23.0931C23.1405 4.93284 23.37 3.83313 23.7532 2.80829H17.711C15.4481 2.80825 13.648 2.80825 12.1964 2.9285C10.7097 3.05166 9.44223 3.30942 8.28446 3.90939C6.49387 4.83728 5.03393 6.29374 4.1038 8.08001C3.50239 9.23496 3.244 10.4993 3.12055 11.9825C3 13.4306 3 15.2263 3 17.4838V22.5158C3 24.7733 3 26.5692 3.12055 28.0174C3.244 29.5005 3.50239 30.7648 4.1038 31.9199C5.03393 33.7059 6.49387 35.1624 8.28446 36.0905C9.44223 36.6904 10.7097 36.948 12.1964 37.0715C13.648 37.1917 15.448 37.1917 17.7109 37.1917H22.7553C25.0181 37.1917 26.8183 37.1917 28.27 37.0715C29.7567 36.948 31.024 36.6904 32.1819 36.0905C33.9722 35.1624 35.4322 33.7059 36.3626 31.9199C36.9639 30.7648 37.2221 29.5005 37.3459 28.0174C37.4664 26.5692 37.4664 24.7733 37.4664 22.5162V16.4882C36.4389 16.8706 35.3367 17.0995 34.1874 17.1468Z" fill="white"/>
<path d="M61.1911 17.1083C61.1911 18.1125 60.9485 19.0539 60.4632 19.9328C59.9959 20.8116 59.25 21.5197 58.2253 22.0578C57.2186 22.5955 55.9423 22.8646 54.3962 22.8646H51.2414V30.0737H47.4664V11.2981H54.3962C55.8525 11.2981 57.0928 11.5492 58.1175 12.0513C59.1418 12.5534 59.9058 13.2438 60.4091 14.1225C60.9305 15.0012 61.1911 15.9964 61.1911 17.1083ZM54.2343 19.8251C55.277 19.8251 56.0501 19.592 56.5534 19.1257C57.0567 18.6415 57.3084 17.969 57.3084 17.1083C57.3084 15.2791 56.2837 14.3646 54.2343 14.3646H51.2414V19.8251H54.2343Z" fill="white"/>
<path d="M66.9661 17.4849C67.4514 16.6958 68.0806 16.0772 68.8536 15.6288C69.6443 15.1805 70.5431 14.9564 71.5498 14.9564V18.9105H70.5521C69.366 18.9105 68.4671 19.1885 67.856 19.7444C67.2625 20.3005 66.9661 21.2687 66.9661 22.6495V30.0737H63.1912V15.1716H66.9661V17.4849Z" fill="white"/>
<path d="M81.1264 30.0737C79.6885 30.0737 78.3941 29.7597 77.2436 29.132C76.0931 28.4864 75.1856 27.5811 74.5204 26.4154C73.8732 25.2496 73.5498 23.9048 73.5498 22.3805C73.5498 20.8561 73.8822 19.5113 74.5474 18.3457C75.2303 17.18 76.1562 16.2834 77.3248 15.6558C78.4929 15.0102 79.7963 14.6874 81.2346 14.6874C82.6724 14.6874 83.9758 15.0102 85.1444 15.6558C86.3125 16.2834 87.2294 17.18 87.8947 18.3457C88.5775 19.5113 88.9194 20.8561 88.9194 22.3805C88.9194 23.9048 88.5685 25.2496 87.8676 26.4154C87.1844 27.5811 86.2498 28.4864 85.0632 29.132C83.8947 29.7597 82.5827 30.0737 81.1264 30.0737ZM81.1264 26.792C81.8096 26.792 82.4478 26.6305 83.0409 26.3078C83.652 25.9672 84.1377 25.4651 84.4972 24.8015C84.8567 24.1379 85.0362 23.3311 85.0362 22.3805C85.0362 20.9637 84.6587 19.8789 83.9037 19.1257C83.1667 18.3546 82.2589 17.9691 81.1805 17.9691C80.1021 17.9691 79.1942 18.3546 78.4573 19.1257C77.7379 19.8789 77.3785 20.9637 77.3785 22.3805C77.3785 23.7973 77.7289 24.891 78.4302 25.6622C79.1491 26.4154 80.048 26.792 81.1264 26.792Z" fill="white"/>
<path d="M90.9193 22.3269C90.9193 20.8205 91.2157 19.4844 91.8092 18.3188C92.4203 17.1531 93.247 16.2565 94.2897 15.6288C95.3325 15.0012 96.4916 14.6874 97.7679 14.6874C98.7389 14.6874 99.6644 14.9026 100.545 15.333C101.426 15.7454 102.127 16.3013 102.648 17.0007V9.92627H106.477V29.8316H102.648V27.6257C102.181 28.3609 101.525 28.9529 100.68 29.4011C99.8354 29.8496 98.8558 30.0737 97.7409 30.0737C96.4826 30.0737 95.3325 29.7507 94.2897 29.1054C93.247 28.4598 92.4203 27.5541 91.8092 26.3884C91.2157 25.2051 90.9193 23.8508 90.9193 22.3269ZM102.675 22.3805C102.675 21.4658 102.496 20.686 102.136 20.0404C101.777 19.3768 101.291 18.8747 100.68 18.534C100.069 18.1753 99.4128 17.996 98.7119 17.996C98.0106 17.996 97.3634 18.1663 96.7703 18.507C96.1772 18.8478 95.6919 19.3499 95.3144 20.0134C94.955 20.659 94.775 21.4302 94.775 22.3269C94.775 23.2232 94.955 24.0123 95.3144 24.6939C95.6919 25.3572 96.1772 25.8683 96.7703 26.2269C97.3814 26.5859 98.0286 26.765 98.7119 26.765C99.4128 26.765 100.069 26.5949 100.68 26.2539C101.291 25.8953 101.777 25.3931 102.136 24.7475C102.496 24.0843 102.675 23.2951 102.675 22.3805Z" fill="white"/>
<path d="M122.714 14.9835V29.8856H118.912V28.0027C118.427 28.6483 117.789 29.1594 116.998 29.536C116.225 29.8946 115.38 30.0737 114.463 30.0737C113.295 30.0737 112.261 29.8316 111.363 29.3475C110.464 28.8454 109.754 28.1192 109.232 27.1686C108.729 26.2003 108.477 25.0526 108.477 23.7257V14.9835H112.252V23.1876C112.252 24.3713 112.549 25.2856 113.142 25.9313C113.735 26.5589 114.544 26.8729 115.569 26.8729C116.611 26.8729 117.43 26.5589 118.023 25.9313C118.616 25.2856 118.912 24.3713 118.912 23.1876V14.9835H122.714Z" fill="white"/>
<path d="M124.714 22.3805C124.714 20.8381 125.029 19.4933 125.658 18.3457C126.288 17.18 127.159 16.2834 128.274 15.6558C129.388 15.0102 130.665 14.6874 132.102 14.6874C133.954 14.6874 135.482 15.1536 136.687 16.0861C137.909 17.0007 138.727 18.2919 139.14 19.9594H135.069C134.853 19.314 134.484 18.8119 133.963 18.4532C133.46 18.0767 132.831 17.8884 132.076 17.8884C130.997 17.8884 130.143 18.2829 129.514 19.0719C128.885 19.8429 128.57 20.9461 128.57 22.3805C128.57 23.7973 128.885 24.9 129.514 25.6892C130.143 26.4604 130.997 26.8459 132.076 26.8459C133.603 26.8459 134.601 26.1643 135.069 24.8015H139.14C138.727 26.4154 137.909 27.6977 136.687 28.6479C135.464 29.5986 133.936 30.0737 132.102 30.0737C130.665 30.0737 129.388 29.7597 128.274 29.132C127.159 28.4864 126.288 27.5901 125.658 26.4424C125.029 25.2766 124.714 23.9228 124.714 22.3805Z" fill="white"/>
<path d="M146.721 18.2649V25.4737C146.721 25.9758 146.838 26.3434 147.072 26.5769C147.324 26.792 147.737 26.8995 148.313 26.8995H150.065V30.0737H147.692C144.511 30.0737 142.919 28.5314 142.919 25.4471V18.2649H141.14V15.1715H142.919V11.4864H146.721V15.1715H150.065V18.2649H146.721Z" fill="white"/>
<path d="M25 7.97658C25 3.91177 28.3032 0.616577 32.3778 0.616577C36.4524 0.616577 39.7556 3.91177 39.7556 7.97658C39.7556 12.0414 36.4524 15.3366 32.3778 15.3366C28.3032 15.3366 25 12.0414 25 7.97658Z" fill="#7214FF"/>
<path d="M154.346 30.4115C153.663 30.4115 153.096 30.205 152.647 29.7929C152.216 29.3623 152 28.8332 152 28.2055C152 27.5779 152.216 27.0578 152.647 26.6456C153.096 26.2151 153.663 26 154.346 26C155.011 26 155.559 26.2151 155.991 26.6456C156.422 27.0578 156.638 27.5779 156.638 28.2055C156.638 28.8332 156.422 29.3623 155.991 29.7929C155.559 30.205 155.011 30.4115 154.346 30.4115Z" fill="#7214FF"/>
</g>
<defs>
<clipPath id="clip0_20_14">
<rect width="158" height="38.3834" fill="white" transform="translate(0 0.808289)"/>
</clipPath>
</defs>
</svg>
