<svg width="35" height="45" viewBox="0 0 35 45" fill="none" xmlns="http://www.w3.org/2000/svg">
<g clip-path="url(#clip0_262_1165)">
<path d="M1.64258 0H25.6807C26.3311 0.0703125 26.876 0.650391 26.8672 1.30957C26.876 12.6211 26.8672 23.9326 26.8672 35.2441C26.8584 35.6045 26.9111 36 26.7354 36.334C26.5156 36.8174 25.9883 37.1162 25.4609 37.0898C17.5772 37.0898 9.69336 37.0898 1.80957 37.0898C1.10645 37.0986 0.482422 36.4746 0.5 35.7803C0.5 24.4688 0.5 13.1572 0.5 1.8457C0.508789 1.47656 0.456055 1.08984 0.631836 0.74707C0.816406 0.351563 1.2207 0.0878906 1.64258 0ZM5.53613 6.70606C4.79785 6.8291 4.2793 7.65527 4.5166 8.37598C4.66602 8.9209 5.21094 9.3252 5.77344 9.31641C8.41016 9.31641 11.0469 9.31641 13.6836 9.31641C14.3867 9.33399 15.0107 8.70117 15.002 7.99805C15.0195 7.29492 14.3867 6.66211 13.6836 6.67969C11.0732 6.67969 8.47168 6.67969 5.86133 6.67969C5.75586 6.67969 5.6416 6.68848 5.53613 6.70606ZM5.52734 11.9795C4.85938 12.0938 4.3584 12.7881 4.47266 13.4561C4.55176 14.0889 5.14063 14.5986 5.77344 14.5898C10.8975 14.5898 16.0303 14.5898 21.1543 14.5898C21.4707 14.5898 21.8047 14.6162 22.1035 14.4844C22.71 14.2471 23.0615 13.5176 22.8594 12.9023C22.71 12.3574 22.165 11.9531 21.5938 11.9619C16.4697 11.9619 11.3369 11.9619 6.21289 11.9619C5.98438 11.9531 5.75586 11.9443 5.52734 11.9795ZM5.52734 17.2529C4.7627 17.3848 4.24414 18.2637 4.53418 18.9844C4.70996 19.5029 5.22852 19.8633 5.77344 19.8633C11.0205 19.8633 16.2676 19.8633 21.5059 19.8633C21.9629 19.8809 22.4287 19.6611 22.6836 19.2832C22.9736 18.8701 22.9824 18.2988 22.7188 17.8682C22.4727 17.4463 21.9893 17.209 21.5059 17.2266C16.4346 17.2266 11.3633 17.2266 6.30078 17.2266C6.0459 17.2266 5.78223 17.209 5.52734 17.2529ZM5.52734 22.5264C4.85938 22.6406 4.3584 23.335 4.47266 24.0117C4.55176 24.6445 5.14063 25.1455 5.77344 25.1367C11.0205 25.1367 16.2588 25.1367 21.5059 25.1367C22.0332 25.1631 22.5605 24.8643 22.7803 24.3809C23.0352 23.8711 22.8945 23.2119 22.4727 22.8428C22.1914 22.5791 21.7959 22.4736 21.418 22.5C16.3818 22.5 11.3369 22.5 6.30078 22.5C6.0459 22.5 5.78223 22.4824 5.52734 22.5264ZM16.0742 27.7998C15.4063 27.9141 14.9053 28.6084 15.0195 29.2764C15.0986 29.9092 15.6875 30.4189 16.3291 30.4102C18.0518 30.4102 19.7832 30.4102 21.5059 30.4102C22.2441 30.4629 22.9297 29.8301 22.9209 29.0918C22.9297 28.3975 22.3145 27.7647 21.6113 27.7734C19.9063 27.7734 18.21 27.7734 16.5049 27.7734C16.3555 27.7734 16.2148 27.7734 16.0742 27.7998Z" fill="#F6F6F7"/>
<path d="M29.5039 7.99802C30.8223 7.99802 32.1494 7.99802 33.4678 7.99802C34.1621 7.98923 34.7861 8.61325 34.7773 9.30759C34.7861 20.7422 34.7773 32.1679 34.7773 43.6025C34.8213 44.2881 34.2764 44.9209 33.5996 45H9.60547C8.95508 44.9297 8.41016 44.3496 8.41895 43.6904C8.41016 42.372 8.41895 41.0537 8.41895 39.7265C14.0439 39.7265 19.6689 39.7265 25.2939 39.7265C25.8828 39.7353 26.4805 39.665 27.0254 39.4365C28.4932 38.8652 29.5303 37.3447 29.5127 35.7627C29.5127 26.5078 29.5039 17.2529 29.5039 7.99802Z" fill="#41E88D"/>
</g>
<defs>
<clipPath id="clip0_262_1165">
<rect width="34.2861" height="45" fill="white" transform="translate(0.5)"/>
</clipPath>
</defs>
</svg>
