<svg width="54" height="45" viewBox="0 0 54 45" fill="none" xmlns="http://www.w3.org/2000/svg">
<path d="M25.8541 2.08023C27.4782 1.85361 29.1685 2.10856 30.6416 2.82622C32.6057 3.76106 34.1732 5.48909 34.9097 7.53818C35.8446 10.0689 35.4385 13.0622 33.8427 15.2435C32.4263 17.2737 30.0561 18.6052 27.5821 18.7468C25.1175 18.9357 22.6057 17.9347 20.9249 16.1312C19.8296 14.9791 19.0741 13.506 18.7908 11.9385C18.3942 9.91778 18.7908 7.75537 19.8768 6.00845C21.161 3.89326 23.4084 2.40129 25.8541 2.08023Z" fill="white"/>
<path d="M11.4632 9.87055C12.8702 9.6817 14.3433 9.99331 15.5614 10.7393C16.7229 11.4475 17.6388 12.5429 18.1393 13.8177C18.6681 15.168 18.7059 16.6977 18.2432 18.0669C17.6105 20.0027 15.9674 21.5702 14.0033 22.1273C12.5208 22.5523 10.8778 22.4012 9.4991 21.7119C8.14878 21.0414 7.06285 19.8705 6.49628 18.4824C5.9486 17.1699 5.87306 15.659 6.28854 14.2992C6.94954 11.9669 9.06473 10.1538 11.4632 9.87055Z" fill="#B756FE"/>
<path d="M41.0098 9.86116C42.3696 9.70064 43.786 9.98392 44.9663 10.6921C46.1561 11.4003 47.1099 12.5146 47.6103 13.8083C48.1863 15.2719 48.1863 16.9527 47.5914 18.4069C47.0343 19.8328 45.9295 21.0226 44.5603 21.7025C43.5594 22.2124 42.4073 22.4201 41.2931 22.3446C39.3101 22.2124 37.4404 21.0415 36.4206 19.3418C35.0797 17.2455 35.2213 14.3465 36.7228 12.373C37.7237 10.9849 39.3101 10.0595 41.0098 9.86116Z" fill="#B756FE"/>
<path d="M22.0297 20.5315C22.6813 20.4749 23.3423 20.4937 23.9938 20.4937C26.4206 20.4937 28.838 20.4937 31.2648 20.4937C32.9456 20.4843 34.617 21.1075 35.8824 22.2218C37.0721 23.2605 37.9031 24.7052 38.1581 26.2633C38.2997 27.0093 38.2619 27.7742 38.2714 28.539C38.2714 32.8827 38.2714 37.217 38.2714 41.5607C38.2903 42.0989 37.9692 42.6372 37.4687 42.8638C37.1288 43.0338 36.7322 42.996 36.3639 43.0054C29.9711 43.0054 23.5878 43.0054 17.195 43.0054C16.4207 43.0432 15.7219 42.3444 15.7691 41.5701C15.7691 36.8865 15.7691 32.1934 15.7691 27.5098C15.7691 25.9895 16.2696 24.4692 17.195 23.2605C18.347 21.7308 20.1412 20.7204 22.0297 20.5315Z" fill="white"/>
<path d="M5.11763 25.98C6.3452 24.8374 7.98825 24.1764 9.65963 24.1386C10.9627 24.1197 12.2659 24.1292 13.569 24.1292C13.1535 25.3001 12.9646 26.5371 12.9741 27.7836C12.9741 31.9101 12.9741 36.0271 12.9741 40.1537C12.9835 41.1074 12.8985 42.08 13.2101 42.996C11.5765 42.996 9.95236 42.996 8.31875 42.996C7.62942 42.9865 6.9401 43.0243 6.25077 42.911C5.46702 42.7599 4.73992 42.3916 4.15447 41.8439C3.35183 41.0885 2.89857 39.9931 2.85136 38.8789V30.9375C2.90801 29.0678 3.72954 27.2359 5.11763 25.98Z" fill="#B756FE"/>
<path d="M40.481 24.1293C41.633 24.1199 42.7851 24.1293 43.9276 24.1293C44.6264 24.1293 45.3346 24.186 46.0051 24.3654C47.5253 24.762 48.8946 25.7063 49.8294 26.9716C50.6793 28.1142 51.1514 29.5117 51.1892 30.9376V38.879C51.1419 39.5117 51.0192 40.1538 50.717 40.7204C50.1316 41.8724 48.9795 42.7222 47.7048 42.93C47.0438 43.0339 46.3828 42.9961 45.7123 43.0055C44.0787 43.0055 42.4546 43.0055 40.8209 43.0055C40.9815 42.4862 41.0665 41.9385 41.057 41.3908C41.057 36.7921 41.057 32.1935 41.057 27.6043C41.0759 26.4145 40.8682 25.2436 40.481 24.1293Z" fill="#B756FE"/>
</svg>
